Coordinates
version=1
nRows=60
nColumns=12
inDegrees=yes

Units are S.I. units (second, meters, Newtons, ...)
Angles are in degrees

endheader
time	SC_y	SC_z	SC_x	AC_y	AC_z	AC_x	GH_y	GH_z	GH_yy	EL_x	PS_y
       0.0              -56.89          33.89           44.5          61.65         -7.865           -2.9          144.2          57.33         -159.3          33.21          132.5
  0.004478              -56.89          33.88           44.5          61.64         -7.864         -2.899          144.1          57.33         -159.3          33.22          132.5
  0.008955              -56.88          33.88           44.5          61.64         -7.862         -2.897          144.1          57.33         -159.3          33.22          132.5
   0.01343              -56.87          33.87           44.5          61.64          -7.86         -2.896          144.1          57.33         -159.3          33.23          132.5
   0.01791              -56.87          33.87          44.51          61.64         -7.859         -2.894          144.0          57.33         -159.3          33.24          132.5
   0.02239              -56.86          33.86          44.51          61.64         -7.857         -2.892          144.0          57.33         -159.3          33.25          132.5
   0.02687              -56.85          33.86          44.51          61.64         -7.855          -2.89          144.0          57.33         -159.3          33.26          132.5
   0.03134              -56.84          33.85          44.52          61.64         -7.853         -2.888          143.9          57.33         -159.3          33.27          132.5
   0.03582              -56.83          33.84          44.52          61.64          -7.85         -2.886          143.9          57.33         -159.2          33.28          132.5
    0.0403              -56.82          33.83          44.53          61.64         -7.848         -2.883          143.8          57.34         -159.2           33.3          132.5
   0.04478              -56.81          33.83          44.53          61.64         -7.845         -2.881          143.8          57.34         -159.2          33.31          132.5
   0.04925               -56.8          33.82          44.54          61.64         -7.842         -2.878          143.7          57.34         -159.2          33.32          132.5
   0.05373              -56.79          33.81          44.54          61.64         -7.839         -2.875          143.6          57.34         -159.2          33.34          132.5
   0.05821              -56.78           33.8          44.55          61.63         -7.836         -2.871          143.6          57.34         -159.2          33.35          132.5
   0.06269              -56.76          33.79          44.56          61.63         -7.832         -2.868          143.5          57.34         -159.1          33.37          132.5
   0.06717              -56.74          33.77          44.56          61.63         -7.829         -2.864          143.4          57.35         -159.1          33.39          132.5
   0.07164              -56.73          33.76          44.57          61.63         -7.824          -2.86          143.3          57.35         -159.1          33.41          132.5
   0.07612              -56.71          33.75          44.58          61.63          -7.82         -2.855          143.2          57.35         -159.1          33.43          132.5
    0.0806              -56.69          33.73          44.59          61.63         -7.815          -2.85          143.1          57.35         -159.0          33.46          132.5
   0.08508              -56.67          33.71           44.6          61.62         -7.809         -2.845          143.0          57.36         -159.0          33.49          132.5
   0.08955              -56.64           33.7          44.61          61.62         -7.803         -2.839          142.9          57.36         -159.0          33.52          132.5
   0.09403              -56.61          33.68          44.62          61.62         -7.797         -2.832          142.7          57.36         -158.9          33.55          132.5
   0.09851              -56.58          33.65          44.64          61.62         -7.789         -2.825          142.6          57.37         -158.9          33.59          132.5
     0.103              -56.55          33.63          44.65          61.61         -7.781         -2.817          142.4          57.37         -158.9          33.63          132.4
    0.1075              -56.51           33.6          44.67          61.61         -7.772         -2.808          142.2          57.38         -158.8          33.67          132.4
    0.1119              -56.47          33.57          44.69           61.6         -7.762         -2.798          142.0          57.38         -158.8          33.72          132.4
    0.1164              -56.43          33.53          44.71           61.6         -7.751         -2.786          141.8          57.39         -158.7          33.78          132.4
    0.1209              -56.38          33.49          44.74           61.6         -7.738         -2.774          141.5          57.39         -158.6          33.84          132.4
    0.1254              -56.32          33.45          44.76          61.59         -7.724         -2.759          141.2           57.4         -158.6          33.91          132.4
    0.1299              -56.25           33.4          44.79          61.58         -7.708         -2.743          140.9          57.41         -158.5          33.99          132.4
    0.1343              -56.17          33.34          44.83          61.58         -7.689         -2.725          140.5          57.42         -158.4          34.09          132.4
    0.1388              -56.09          33.27          44.87          61.57         -7.668         -2.703          140.0          57.43         -158.2          34.19          132.4
    0.1433              -55.99           33.2          44.92          61.56         -7.643         -2.679          139.5          57.45         -158.1          34.32          132.3
    0.1478              -55.87          33.11          44.97          61.55         -7.614          -2.65          138.9          57.46         -158.0          34.46          132.3
    0.1522              -55.73           33.0          45.03          61.53         -7.581         -2.617          138.2          57.48         -157.8          34.62          132.3
    0.1567              -55.57          32.88          45.11          61.52         -7.541         -2.577          137.4           57.5         -157.6          34.82          132.3
    0.1612              -55.38          32.74           45.2           61.5         -7.495          -2.53          136.4          57.53         -157.3          35.05          132.2
    0.1657              -55.15          32.56          45.31          61.48         -7.438         -2.474          135.3          57.56         -157.0          35.33          132.2
    0.1702              -54.87          32.35          45.43          61.45          -7.37         -2.406          133.8          57.59         -156.6          35.67          132.1
    0.1746              -54.53          32.09          45.59          61.42         -7.287         -2.323          132.1          57.64         -156.2          36.09          132.1
    0.1791              -54.11          31.77          45.79          61.38         -7.185         -2.221          130.0           57.7         -155.6           36.6          132.0
    0.1836              -53.59          31.38          46.03          61.33         -7.057         -2.093          127.3          57.76         -154.9          37.23          131.9
    0.1881              -52.93          30.88          46.33          61.26         -6.896         -1.933          123.9          57.85         -154.0          38.03          131.7
    0.1925              -52.09          30.24          46.72          61.18         -6.691         -1.728          119.7          57.96         -152.9          39.05          131.6
     0.197              -51.02          29.43          47.22          61.08         -6.429         -1.466          114.2          58.11         -151.5          40.36          131.4
    0.2015              -49.65          28.38          47.86          60.95         -6.093         -1.131          107.2          58.29         -149.7          42.03          131.1
     0.206              -47.89          27.05          48.67          60.78         -5.663        -0.7016          98.19          58.52         -147.3          44.17          130.8
    0.2105              -45.68          25.37           49.7          60.57         -5.123        -0.1622          86.91          58.82         -144.4          46.86          130.3
    0.2149              -42.99          23.32          50.95          60.31         -4.465         0.4951          73.16          59.17         -140.8          50.14          129.8
    0.2194              -39.87          20.95           52.4          60.01         -3.702          1.257          57.23          59.59         -136.7          53.93          129.2
    0.2239              -36.49          18.38          53.97          59.68         -2.875          2.082          39.98          60.04         -132.2          58.05          128.5
    0.2284              -33.11          15.82          55.53          59.36         -2.049          2.907          22.72          60.48         -127.7          62.16          127.9
    0.2328              -29.99          13.45          56.98          59.06         -1.286          3.669          6.791           60.9         -123.5          65.96          127.3
    0.2373               -27.3           11.4          58.23           58.8        -0.6279          4.326         -6.954          61.26         -120.0          69.23          126.7
    0.2418              -25.09          9.722          59.26          58.59       -0.08768          4.866         -18.23          61.55         -117.0          71.92          126.3
    0.2463              -23.34          8.388          60.07          58.42         0.3419          5.295          -27.2          61.78         -114.7          74.06          126.0
    0.2508              -21.96          7.343          60.71          58.28         0.6782           5.63         -34.23          61.97         -112.9          75.74          125.7
    0.2552              -20.89          6.528          61.21          58.18         0.9403          5.892          -39.7          62.11         -111.4          77.04          125.5
    0.2597              -20.05          5.892           61.6           58.1          1.145          6.097         -43.98          62.22         -110.3          78.06          125.3
    0.2642               -19.4          5.392           61.9          58.04          1.306          6.257         -47.34          62.31         -109.4          78.86          125.2
